<?xml version="1.0" encoding="UTF-8" standalone="no"?>
<!-- Generated by graphviz version 12.1.2 (0)
 -->

<!-- Pages: 1 -->

<svg
   width="137pt"
   height="89.199997pt"
   viewBox="0 0 137 89.199997"
   version="1.1"
   id="svg16"
   xmlns="http://www.w3.org/2000/svg"
   xmlns:svg="http://www.w3.org/2000/svg">
  <defs
     id="defs16" />
  <rect
     width="100%"
     height="100%"
     fill="#f8f8f8"
     id="rect1"
     x="0"
     y="0" />
  <g
     id="g1"
     transform="translate(5,4.4999985)">
    <g
       id="node2"
       class="node"
       transform="translate(0.5,209.3)">
      <title
         id="title6">node2</title>
      <polygon
         fill="#d3d3d3"
         stroke="#000000"
         points="90,-208.8 36,-208.8 36,-187.2 90,-187.2 "
         id="polygon6" />
    </g>
    <g
       id="node3"
       class="node"
       transform="translate(0.5,209.3)">
      <title
         id="title8">node3</title>
      <polygon
         fill="#d3d3d3"
         stroke="#000000"
         points="54,-151.2 0,-151.2 0,-129.6 54,-129.6 "
         id="polygon8" />
    </g>
    <g
       id="edge2"
       class="edge"
       transform="translate(0.5,209.3)">
      <title
         id="title9">node2:s-&gt;node3:n</title>
      <path
         fill="none"
         stroke="#008000"
         d="m 63,-187.2 c 0,17.85 -22.41,15.86 -31.87,25.34"
         id="path9" />
      <polygon
         fill="#008000"
         stroke="#008000"
         points="27.89,-163.2 34.42,-160.67 27.55,-152.61 "
         id="polygon9" />
    </g>
    <g
       id="node4"
       class="node"
       transform="translate(0.5,209.3)">
      <title
         id="title10">node4</title>
      <polygon
         fill="#d3d3d3"
         stroke="#000000"
         points="126,-151.2 72,-151.2 72,-129.6 126,-129.6 "
         id="polygon10" />
    </g>
    <g
       id="edge4"
       class="edge"
       transform="translate(0.5,209.3)">
      <title
         id="title11">node2:s-&gt;node4:n</title>
      <path
         fill="none"
         stroke="#ff0000"
         d="m 63,-187.2 c 0,17.85 22.41,15.86 31.87,25.34"
         id="path11" />
      <polygon
         fill="#ff0000"
         stroke="#ff0000"
         points="91.58,-160.67 98.11,-163.2 98.45,-152.61 "
         id="polygon11" />
    </g>
  </g>
</svg>
