<?xml version="1.0" encoding="UTF-8" standalone="no"?>
<!DOCTYPE svg PUBLIC "-//W3C//DTD SVG 1.1//EN"
 "http://www.w3.org/Graphics/SVG/1.1/DTD/svg11.dtd">
<!-- Generated by graphviz version 12.1.2 (0)
 -->
<!-- Pages: 1 -->
<svg width="170pt" height="282pt"
 viewBox="0.00 0.00 170.00 281.60" xmlns="http://www.w3.org/2000/svg" xmlns:xlink="http://www.w3.org/1999/xlink">
 <rect width="100%" height="100%" fill="#f8f8f8"/>
<g id="graph0" class="graph" transform="scale(1 1) rotate(0) translate(4 277.6)">
<!-- node0 -->
<g id="node0" class="node">
<title>node0</title>
<polygon fill="#48ab30" stroke="black" points="0,-250.04 27,-237.6 54,-250.04 53.97,-270.16 0.03,-270.16 0,-250.04"/>
</g>
<!-- node2 -->
<g id="node2" class="node">
<title>node2</title>
<polygon fill="lightgray" stroke="black" points="54,-201.6 0,-201.6 0,-180 54,-180 54,-201.6"/>
</g>
<!-- node0&#45;&gt;node2 -->
<g id="edge4" class="edge">
<title>node0:s&#45;&gt;node2:n</title>
<path fill="none" stroke="blue" d="M27,-237.6C27,-226.22 27,-220.92 27,-213.05"/>
<polygon fill="blue" stroke="blue" points="30.5,-213.11 27,-203.11 23.5,-213.11 30.5,-213.11"/>
</g>
<!-- node1 -->
<g id="node1" class="node">
<title>node1</title>
<polygon fill="deepskyblue" stroke="black" points="27,-122.4 0,-117 0,-106.2 27,-100.8 54,-106.2 54,-117 27,-122.4"/>
</g>
<!-- node2&#45;&gt;node1 -->
<g id="edge1" class="edge">
<title>node2:s&#45;&gt;node1:n</title>
<path fill="none" stroke="green" d="M27,-180C27,-159.3 27,-151.45 27,-135.17"/>
<polygon fill="green" stroke="green" points="30.5,-135.26 27,-125.26 23.5,-135.26 30.5,-135.26"/>
</g>
<!-- node2&#45;&gt;node1 -->
<g id="edge2" class="edge">
<title>node2:n&#45;&gt;node1:s</title>
<path fill="none" stroke="blue" stroke-width="2" d="M37.64,-209.81C43.29,-209.07 49.9,-205.86 54,-201.6 61.8,-193.51 61.8,-108.54 54,-100.45 45.67,-91.8 27,-87.44 27,-99.45"/>
<polygon fill="blue" stroke="blue" stroke-width="2" points="39.75,-207.01 29.51,-204.3 35.82,-212.81 39.75,-207.01"/>
</g>
<!-- node4 -->
<g id="node4" class="node">
<title>node4</title>
<polygon fill="lightgray" stroke="black" points="126,-144 72,-144 72,-79.2 126,-79.2 126,-144"/>
</g>
<!-- node2&#45;&gt;node4 -->
<g id="edge5" class="edge">
<title>node2:s&#45;&gt;node4:n</title>
<path fill="none" stroke="red" d="M27,-180C27,-148.97 81.15,-171.59 95.53,-154.81"/>
<polygon fill="red" stroke="red" points="98.81,-156.03 98.54,-145.44 92.15,-153.89 98.81,-156.03"/>
</g>
<!-- node5 -->
<g id="node5" class="node">
<title>node5</title>
<polygon fill="#ffdddd" stroke="black" points="63,-39.6 36,-12.6 90,-12.6 63,-39.6"/>
</g>
<!-- node4&#45;&gt;node5 -->
<g id="edge3" class="edge">
<title>node4:s&#45;&gt;node5:n</title>
<path fill="none" stroke="green" d="M99,-79.2C99,-60.59 76.14,-62.16 66.85,-51.75"/>
<polygon fill="green" stroke="green" points="70.16,-50.6 63.51,-42.35 63.56,-52.94 70.16,-50.6"/>
</g>
<!-- node8 -->
<g id="node8" class="node">
<title>node8</title>
<polygon fill="#ab3030" stroke="black" points="162,-28.27 135,-43.2 108,-28.27 108.03,-4.13 161.97,-4.13 162,-28.27"/>
</g>
<!-- node4&#45;&gt;node8 -->
<g id="edge6" class="edge">
<title>node4:s&#45;&gt;node8:n</title>
<path fill="none" stroke="red" d="M99,-79.2C99,-61.35 121.41,-63.34 130.87,-53.86"/>
<polygon fill="red" stroke="red" points="134.11,-55.2 134.45,-44.61 127.58,-52.67 134.11,-55.2"/>
</g>
</g>
</svg>
