<?xml version="1.0" encoding="UTF-8" standalone="no"?>
<!DOCTYPE svg PUBLIC "-//W3C//DTD SVG 1.1//EN"
 "http://www.w3.org/Graphics/SVG/1.1/DTD/svg11.dtd">
<!-- Generated by graphviz version 12.1.2 (0)
 -->
<!-- Pages: 1 -->
<svg width="114pt" height="318pt"
 viewBox="0.00 0.00 114.00 317.60" xmlns="http://www.w3.org/2000/svg" xmlns:xlink="http://www.w3.org/1999/xlink">
 <rect width="100%" height="100%" fill="#f8f8f8"/>
<g id="graph0" class="graph" transform="scale(1 1) rotate(0) translate(4 313.6)">
<g id="clust1" class="cluster">
<title>cluster_0</title>
<polygon fill="#ffddff" stroke="white" stroke-width="0" points="8,-64 8,-238.4 98,-238.4 98,-64 8,-64"/>
</g>
<!-- node2 -->
<g id="node2" class="node">
<title>node2</title>
<polygon fill="lightgray" stroke="black" points="80,-230.4 26,-230.4 26,-187.2 80,-187.2 80,-230.4"/>
</g>
<!-- node3 -->
<g id="node3" class="node">
<title>node3</title>
<polygon fill="lightgray" stroke="black" points="70,-151.2 16,-151.2 16,-129.6 70,-129.6 70,-151.2"/>
</g>
<!-- node2&#45;&gt;node3 -->
<g id="edge1" class="edge">
<title>node2:s&#45;&gt;node3:n</title>
<path fill="none" stroke="green" d="M53,-187.2C53,-175.26 47.83,-170.47 44.93,-162.55"/>
<polygon fill="green" stroke="green" points="48.38,-161.96 43.25,-152.69 41.48,-163.14 48.38,-161.96"/>
</g>
<!-- node5 -->
<g id="node5" class="node">
<title>node5</title>
<polygon fill="lightgray" stroke="black" points="80,-93.6 26,-93.6 26,-72 80,-72 80,-93.6"/>
</g>
<!-- node2&#45;&gt;node5 -->
<g id="edge3" class="edge">
<title>node2:s&#45;&gt;node5:n</title>
<path fill="none" stroke="red" d="M53,-187.2C53,-167.46 72.93,-169.98 79,-151.2 81.95,-142.07 81.95,-138.73 79,-129.6 74.4,-115.37 61.84,-113.37 56.03,-104.64"/>
<polygon fill="red" stroke="red" points="59.42,-103.78 53.4,-95.06 52.67,-105.63 59.42,-103.78"/>
</g>
<!-- node3&#45;&gt;node5 -->
<g id="edge2" class="edge">
<title>node3:s&#45;&gt;node5:n</title>
<path fill="none" stroke="blue" d="M43,-129.6C43,-117.66 48.17,-112.87 51.07,-104.95"/>
<polygon fill="blue" stroke="blue" points="54.52,-105.54 52.75,-95.09 47.62,-104.36 54.52,-105.54"/>
</g>
<!-- node6 -->
<g id="node6" class="node">
<title>node6</title>
<polygon fill="#ab3030" stroke="black" points="80,-23.56 53,-36 26,-23.56 26.03,-3.44 79.97,-3.44 80,-23.56"/>
</g>
<!-- node5&#45;&gt;node6 -->
<g id="edge4" class="edge">
<title>node5:s&#45;&gt;node6:n</title>
<path fill="none" stroke="blue" d="M53,-71C53,-60.06 53,-54.89 53,-47.38"/>
<polygon fill="blue" stroke="blue" points="56.5,-47.51 53,-37.51 49.5,-47.51 56.5,-47.51"/>
</g>
<!-- node1 -->
<g id="node1" class="node">
<title>node1</title>
<polygon fill="#48ab30" stroke="black" points="26,-281.33 53,-266.4 80,-281.33 79.97,-305.47 26.03,-305.47 26,-281.33"/>
</g>
<!-- node1&#45;&gt;node2 -->
<g id="edge5" class="edge">
<title>node1:s&#45;&gt;node2:n</title>
<path fill="none" stroke="blue" d="M53,-266.4C53,-255.46 53,-250.29 53,-242.78"/>
<polygon fill="blue" stroke="blue" points="56.5,-242.91 53,-232.91 49.5,-242.91 56.5,-242.91"/>
</g>
</g>
</svg>
