<?xml version="1.0" encoding="UTF-8" standalone="no"?>
<!DOCTYPE svg PUBLIC "-//W3C//DTD SVG 1.1//EN"
 "http://www.w3.org/Graphics/SVG/1.1/DTD/svg11.dtd">
<!-- Generated by graphviz version 12.1.2 (0)
 -->
<!-- Pages: 1 -->
<svg width="164pt" height="201pt"
 viewBox="0.00 0.00 164.00 201.20" xmlns="http://www.w3.org/2000/svg" xmlns:xlink="http://www.w3.org/1999/xlink">
 <rect width="100%" height="100%" fill="#f8f8f8"/>
<g id="graph0" class="graph" transform="scale(1 1) rotate(0) translate(4 197.2)">
<g id="clust1" class="cluster">
<title>cluster_0</title>
<polygon fill="#ddddff" stroke="white" stroke-width="0" points="8,-8 8,-137.2 94,-137.2 94,-8 8,-8"/>
</g>
<g id="clust2" class="cluster">
<title>cluster_1</title>
<polygon fill="#ddffdd" stroke="white" stroke-width="0" points="16,-91.6 16,-129.2 86,-129.2 86,-91.6 16,-91.6"/>
</g>
<g id="clust3" class="cluster">
<title>cluster_2</title>
<polygon fill="#ffdddd" stroke="white" stroke-width="0" points="16,-16 16,-68 86,-68 86,-16 16,-16"/>
</g>
<!-- node2 -->
<g id="node2" class="node">
<title>node2</title>
<polygon fill="lightgray" stroke="black" points="78,-121.2 24,-121.2 24,-99.6 78,-99.6 78,-121.2"/>
</g>
<!-- node3 -->
<g id="node3" class="node">
<title>node3</title>
<polygon fill="#ab3030" stroke="black" points="78,-47.56 51,-60 24,-47.56 24.03,-27.44 77.97,-27.44 78,-47.56"/>
</g>
<!-- node2&#45;&gt;node3 -->
<!-- node4 -->
<g id="node4" class="node">
<title>node4</title>
<polygon fill="#ab3030" stroke="black" points="156,-48.67 129,-63.6 102,-48.67 102.03,-24.53 155.97,-24.53 156,-48.67"/>
</g>
<!-- node2&#45;&gt;node4 -->
<g id="edge3" class="edge">
<title>node2:s&#45;&gt;node4:n</title>
<path fill="none" stroke="blue" d="M51,-98.6C51,-65.59 110.72,-93.6 125.65,-75.84"/>
<polygon fill="blue" stroke="blue" points="128.91,-77.15 128.55,-66.56 122.22,-75.06 128.91,-77.15"/>
</g>
<!-- node0 -->
<g id="node0" class="node">
<title>node0</title>
<polygon fill="#48ab30" stroke="black" points="24,-169.64 51,-157.2 78,-169.64 77.97,-189.76 24.03,-189.76 24,-169.64"/>
</g>
<!-- node0&#45;&gt;node2 -->
<g id="edge2" class="edge">
<title>node0:s&#45;&gt;node2:n</title>
<path fill="none" stroke="blue" d="M51,-157.2C51,-146.26 51,-141.09 51,-133.58"/>
<polygon fill="blue" stroke="blue" points="54.5,-133.71 51,-123.71 47.5,-133.71 54.5,-133.71"/>
</g>
</g>
</svg>
