<?xml version="1.0" encoding="UTF-8" standalone="no"?>
<!DOCTYPE svg PUBLIC "-//W3C//DTD SVG 1.1//EN"
 "http://www.w3.org/Graphics/SVG/1.1/DTD/svg11.dtd">
<!-- Generated by graphviz version 12.1.2 (0)
 -->
<!-- Pages: 1 -->
<svg width="286pt" height="354pt"
 viewBox="0.00 0.00 286.00 353.60" xmlns="http://www.w3.org/2000/svg" xmlns:xlink="http://www.w3.org/1999/xlink">
 <rect width="100%" height="100%" fill="#f8f8f8"/>
<g id="graph0" class="graph" transform="scale(1 1) rotate(0) translate(4 349.6)">
<g id="clust1" class="cluster">
<title>cluster_0</title>
<polygon fill="#ddddff" stroke="white" stroke-width="0" points="8,-63.2 8,-289.6 270,-289.6 270,-63.2 8,-63.2"/>
</g>
<g id="clust2" class="cluster">
<title>cluster_1</title>
<polygon fill="#ddffdd" stroke="white" stroke-width="0" points="16,-71.2 16,-281.6 106,-281.6 106,-71.2 16,-71.2"/>
</g>
<g id="clust3" class="cluster">
<title>cluster_2</title>
<polygon fill="#ffdddd" stroke="white" stroke-width="0" points="114,-186.4 114,-224 184,-224 184,-186.4 114,-186.4"/>
</g>
<g id="clust4" class="cluster">
<title>cluster_3</title>
<polygon fill="#ffdddd" stroke="white" stroke-width="0" points="192,-186.4 192,-224 262,-224 262,-186.4 192,-186.4"/>
</g>
<!-- node4 -->
<g id="node4" class="node">
<title>node4</title>
<polygon fill="lightgray" stroke="black" points="98,-273.6 44,-273.6 44,-252 98,-252 98,-273.6"/>
</g>
<!-- node2 -->
<g id="node2" class="node">
<title>node2</title>
<polygon fill="lightgray" stroke="black" points="98,-216 44,-216 44,-194.4 98,-194.4 98,-216"/>
</g>
<!-- node4&#45;&gt;node2 -->
<g id="edge1" class="edge">
<title>node4:s&#45;&gt;node2:n</title>
<path fill="none" stroke="blue" d="M71,-252C71,-241.06 71,-235.89 71,-228.38"/>
<polygon fill="blue" stroke="blue" points="74.5,-228.51 71,-218.51 67.5,-228.51 74.5,-228.51"/>
</g>
<!-- node6 -->
<g id="node6" class="node">
<title>node6</title>
<polygon fill="lightgray" stroke="black" points="176,-216 122,-216 122,-194.4 176,-194.4 176,-216"/>
</g>
<!-- node4&#45;&gt;node6 -->
<!-- node7 -->
<g id="node7" class="node">
<title>node7</title>
<polygon fill="lightgray" stroke="black" points="254,-216 200,-216 200,-194.4 254,-194.4 254,-216"/>
</g>
<!-- node4&#45;&gt;node7 -->
<!-- node3 -->
<g id="node3" class="node">
<title>node3</title>
<polygon fill="lightgray" stroke="black" points="78,-158.4 24,-158.4 24,-136.8 78,-136.8 78,-158.4"/>
</g>
<!-- node2&#45;&gt;node3 -->
<g id="edge2" class="edge">
<title>node2:s&#45;&gt;node3:n</title>
<path fill="none" stroke="green" d="M71,-193.4C71,-179.96 59.75,-177.07 54.12,-168.91"/>
<polygon fill="green" stroke="green" points="57.64,-168.44 51.43,-159.85 50.93,-170.43 57.64,-168.44"/>
</g>
<!-- node5 -->
<g id="node5" class="node">
<title>node5</title>
<polygon fill="lightgray" stroke="black" points="98,-100.8 44,-100.8 44,-79.2 98,-79.2 98,-100.8"/>
</g>
<!-- node2&#45;&gt;node5 -->
<g id="edge4" class="edge">
<title>node2:s&#45;&gt;node5:n</title>
<path fill="none" stroke="red" d="M71,-193.4C71,-176.3 83.36,-175.11 87,-158.4 89.04,-149.02 88.99,-146.19 87,-136.8 84.33,-124.22 76.95,-120.15 73.22,-111.93"/>
<polygon fill="red" stroke="red" points="76.69,-111.41 71.3,-102.28 69.82,-112.78 76.69,-111.41"/>
</g>
<!-- node3&#45;&gt;node5 -->
<g id="edge3" class="edge">
<title>node3:s&#45;&gt;node5:n</title>
<path fill="none" stroke="blue" d="M51,-136.8C51,-123.07 62.25,-119.98 67.88,-111.57"/>
<polygon fill="blue" stroke="blue" points="71.15,-112.83 70.58,-102.25 64.43,-110.88 71.15,-112.83"/>
</g>
<!-- node8 -->
<g id="node8" class="node">
<title>node8</title>
<polygon fill="#ab3030" stroke="black" points="176,-28.27 149,-43.2 122,-28.27 122.03,-4.13 175.97,-4.13 176,-28.27"/>
</g>
<!-- node5&#45;&gt;node8 -->
<g id="edge10" class="edge">
<title>node5:s&#45;&gt;node8:n</title>
<path fill="none" stroke="blue" d="M71,-78.2C71,-44.95 130.72,-72.18 145.65,-54.05"/>
<polygon fill="blue" stroke="blue" points="148.95,-55.23 148.55,-44.65 142.26,-53.17 148.95,-55.23"/>
</g>
<!-- node6&#45;&gt;node8 -->
<g id="edge8" class="edge">
<title>node6:s&#45;&gt;node8:n</title>
<path fill="none" stroke="blue" d="M149,-193.4C149,-130.56 149,-112.08 149,-54.44"/>
<polygon fill="blue" stroke="blue" points="152.5,-54.71 149,-44.71 145.5,-54.71 152.5,-54.71"/>
</g>
<!-- node7&#45;&gt;node8 -->
<g id="edge9" class="edge">
<title>node7:s&#45;&gt;node8:n</title>
<path fill="none" stroke="blue" d="M227,-193.4C227,-128.92 195.81,-118.71 163,-63.2 160.15,-58.38 156.52,-56.1 153.67,-53.53"/>
<polygon fill="blue" stroke="blue" points="156.93,-52.25 149.62,-44.58 150.55,-55.13 156.93,-52.25"/>
</g>
<!-- node0 -->
<g id="node0" class="node">
<title>node0</title>
<polygon fill="#48ab30" stroke="black" points="44,-322.04 71,-309.6 98,-322.04 97.97,-342.16 44.03,-342.16 44,-322.04"/>
</g>
<!-- node0&#45;&gt;node4 -->
<g id="edge7" class="edge">
<title>node0:s&#45;&gt;node4:n</title>
<path fill="none" stroke="blue" d="M71,-309.6C71,-298.66 71,-293.49 71,-285.98"/>
<polygon fill="blue" stroke="blue" points="74.5,-286.11 71,-276.11 67.5,-286.11 74.5,-286.11"/>
</g>
</g>
</svg>
