<?xml version="1.0" encoding="UTF-8" standalone="no"?>
<!DOCTYPE svg PUBLIC "-//W3C//DTD SVG 1.1//EN"
 "http://www.w3.org/Graphics/SVG/1.1/DTD/svg11.dtd">
<!-- Generated by graphviz version 12.1.2 (0)
 -->
<!-- Pages: 1 -->
<svg width="235pt" height="346pt"
 viewBox="0.00 0.00 235.00 346.40" xmlns="http://www.w3.org/2000/svg" xmlns:xlink="http://www.w3.org/1999/xlink">
 <rect width="100%" height="100%" fill="#f8f8f8"/>
<g id="graph0" class="graph" transform="scale(1 1) rotate(0) translate(4 342.4)">
<!-- node1 -->
<g id="node1" class="node">
<title>node1</title>
<polygon fill="#48ab30" stroke="black" points="36,-295.99 63,-273.6 90,-295.99 89.97,-332.21 36.03,-332.21 36,-295.99"/>
</g>
<!-- node2 -->
<g id="node2" class="node">
<title>node2</title>
<polygon fill="lightgray" stroke="black" points="54,-237.6 0,-237.6 0,-216 54,-216 54,-237.6"/>
</g>
<!-- node1&#45;&gt;node2 -->
<g id="edge1" class="edge">
<title>node1:s&#45;&gt;node2:n</title>
<path fill="none" stroke="green" d="M63,-273.6C63,-255.75 40.59,-257.74 31.13,-248.26"/>
<polygon fill="green" stroke="green" points="34.42,-247.07 27.55,-239.01 27.89,-249.6 34.42,-247.07"/>
</g>
<!-- node3 -->
<g id="node3" class="node">
<title>node3</title>
<polygon fill="lightgray" stroke="black" points="126,-237.6 72,-237.6 72,-216 126,-216 126,-237.6"/>
</g>
<!-- node1&#45;&gt;node3 -->
<g id="edge2" class="edge">
<title>node1:s&#45;&gt;node3:n</title>
<path fill="none" stroke="red" d="M63,-273.6C63,-255.75 85.41,-257.74 94.87,-248.26"/>
<polygon fill="red" stroke="red" points="98.11,-249.6 98.45,-239.01 91.58,-247.07 98.11,-249.6"/>
</g>
<!-- node11 -->
<g id="node11" class="node">
<title>node11</title>
<polygon fill="#ab3030" stroke="black" points="127,-28.27 100,-43.2 73,-28.27 73.03,-4.13 126.97,-4.13 127,-28.27"/>
</g>
<!-- node2&#45;&gt;node11 -->
<g id="edge6" class="edge">
<title>node2:s&#45;&gt;node11:n</title>
<path fill="none" stroke="blue" d="M27,-216C27,-150.8 51.27,-137.73 80,-79.2 85.99,-67.01 94.1,-63.16 97.89,-54.51"/>
<polygon fill="blue" stroke="blue" points="101.33,-55.16 99.72,-44.69 94.45,-53.88 101.33,-55.16"/>
</g>
<!-- node4 -->
<g id="node4" class="node">
<title>node4</title>
<polygon fill="lightgray" stroke="black" points="109,-180 55,-180 55,-158.4 109,-158.4 109,-180"/>
</g>
<!-- node3&#45;&gt;node4 -->
<g id="edge3" class="edge">
<title>node3:s&#45;&gt;node4:n</title>
<path fill="none" stroke="green" d="M99,-216C99,-203.01 89.83,-199.22 84.96,-191.12"/>
<polygon fill="green" stroke="green" points="88.34,-190.23 82.39,-181.46 81.58,-192.03 88.34,-190.23"/>
</g>
<!-- node5 -->
<g id="node5" class="node">
<title>node5</title>
<polygon fill="lightgray" stroke="black" points="181,-180 127,-180 127,-158.4 181,-158.4 181,-180"/>
</g>
<!-- node3&#45;&gt;node5 -->
<g id="edge4" class="edge">
<title>node3:s&#45;&gt;node5:n</title>
<path fill="none" stroke="red" d="M99,-216C99,-191.58 137.43,-203.25 150.04,-190.67"/>
<polygon fill="red" stroke="red" points="153.28,-192.01 153.47,-181.42 146.71,-189.58 153.28,-192.01"/>
</g>
<!-- node4&#45;&gt;node11 -->
<g id="edge7" class="edge">
<title>node4:s&#45;&gt;node11:n</title>
<path fill="none" stroke="blue" d="M82,-158.4C82,-122.92 85.92,-114.16 92,-79.2 94.02,-67.59 97.27,-62.54 98.94,-54.53"/>
<polygon fill="blue" stroke="blue" points="102.41,-54.99 99.86,-44.71 95.44,-54.34 102.41,-54.99"/>
</g>
<!-- node6 -->
<g id="node6" class="node">
<title>node6</title>
<polygon fill="lightgray" stroke="black" points="155,-111.6 101,-111.6 101,-90 155,-90 155,-111.6"/>
</g>
<!-- node5&#45;&gt;node6 -->
<g id="edge5" class="edge">
<title>node5:s&#45;&gt;node6:n</title>
<path fill="none" stroke="green" d="M154,-158.4C154,-139.38 136.84,-136.49 130.4,-123.51"/>
<polygon fill="green" stroke="green" points="133.89,-123.09 128.33,-114.08 127.05,-124.6 133.89,-123.09"/>
</g>
<!-- node8 -->
<g id="node8" class="node">
<title>node8</title>
<polygon fill="lightgray" stroke="black" points="227,-122.4 173,-122.4 173,-79.2 227,-79.2 227,-122.4"/>
</g>
<!-- node5&#45;&gt;node8 -->
<g id="edge10" class="edge">
<title>node5:s&#45;&gt;node8:n</title>
<path fill="none" stroke="red" d="M154,-158.4C154,-137.1 184.95,-143.99 196.08,-132.82"/>
<polygon fill="red" stroke="red" points="199.22,-134.41 199.47,-123.82 192.67,-131.94 199.22,-134.41"/>
</g>
<!-- node6&#45;&gt;node11 -->
<g id="edge8" class="edge">
<title>node6:s&#45;&gt;node11:n</title>
<path fill="none" stroke="blue" d="M128,-89C128,-69.62 109.52,-67.25 102.58,-54.24"/>
<polygon fill="blue" stroke="blue" points="106.03,-53.61 100.34,-44.67 99.22,-55.21 106.03,-53.61"/>
</g>
<!-- node8&#45;&gt;node11 -->
<g id="edge9" class="edge">
<title>node8:s&#45;&gt;node11:n</title>
<path fill="none" stroke="blue" d="M200,-79.2C200,-36.58 118.58,-80.02 102.67,-54.21"/>
<polygon fill="blue" stroke="blue" points="106.12,-53.56 100.36,-44.67 99.32,-55.21 106.12,-53.56"/>
</g>
</g>
</svg>
