<?xml version="1.0" encoding="UTF-8" standalone="no"?>
<!DOCTYPE svg PUBLIC "-//W3C//DTD SVG 1.1//EN"
 "http://www.w3.org/Graphics/SVG/1.1/DTD/svg11.dtd">
<!-- Generated by graphviz version 12.1.2 (0)
 -->
<!-- Pages: 1 -->
<svg width="286pt" height="411pt"
 viewBox="0.00 0.00 286.00 411.20" xmlns="http://www.w3.org/2000/svg" xmlns:xlink="http://www.w3.org/1999/xlink">
 <rect width="100%" height="100%" fill="#f8f8f8"/>
<g id="graph0" class="graph" transform="scale(1 1) rotate(0) translate(4 407.2)">
<g id="clust1" class="cluster">
<title>cluster_0</title>
<polygon fill="#ddddff" stroke="white" stroke-width="0" points="8,-71.2 8,-347.2 270,-347.2 270,-71.2 8,-71.2"/>
</g>
<g id="clust2" class="cluster">
<title>cluster_1</title>
<polygon fill="#ddffdd" stroke="white" stroke-width="0" points="16,-128.8 16,-339.2 106,-339.2 106,-128.8 16,-128.8"/>
</g>
<g id="clust3" class="cluster">
<title>cluster_2</title>
<polygon fill="#ffdddd" stroke="white" stroke-width="0" points="114,-244 114,-281.6 184,-281.6 184,-244 114,-244"/>
</g>
<g id="clust4" class="cluster">
<title>cluster_3</title>
<polygon fill="#ffdddd" stroke="white" stroke-width="0" points="192,-244 192,-281.6 262,-281.6 262,-244 192,-244"/>
</g>
<!-- node8 -->
<g id="node8" class="node">
<title>node8</title>
<polygon fill="lightgray" stroke="black" points="110,-100.8 56,-100.8 56,-79.2 110,-79.2 110,-100.8"/>
</g>
<!-- node9 -->
<g id="node9" class="node">
<title>node9</title>
<polygon fill="#ab3030" stroke="black" points="176,-28.27 149,-43.2 122,-28.27 122.03,-4.13 175.97,-4.13 176,-28.27"/>
</g>
<!-- node8&#45;&gt;node9 -->
<g id="edge11" class="edge">
<title>node8:s&#45;&gt;node9:n</title>
<path fill="none" stroke="blue" d="M83,-78.2C83,-49.67 131.74,-68.85 145.45,-53.73"/>
<polygon fill="blue" stroke="blue" points="148.64,-55.23 148.52,-44.63 142.01,-52.99 148.64,-55.23"/>
</g>
<!-- node4 -->
<g id="node4" class="node">
<title>node4</title>
<polygon fill="lightgray" stroke="black" points="98,-331.2 44,-331.2 44,-309.6 98,-309.6 98,-331.2"/>
</g>
<!-- node2 -->
<g id="node2" class="node">
<title>node2</title>
<polygon fill="lightgray" stroke="black" points="98,-273.6 44,-273.6 44,-252 98,-252 98,-273.6"/>
</g>
<!-- node4&#45;&gt;node2 -->
<g id="edge1" class="edge">
<title>node4:s&#45;&gt;node2:n</title>
<path fill="none" stroke="blue" d="M71,-309.6C71,-298.66 71,-293.49 71,-285.98"/>
<polygon fill="blue" stroke="blue" points="74.5,-286.11 71,-276.11 67.5,-286.11 74.5,-286.11"/>
</g>
<!-- node6 -->
<g id="node6" class="node">
<title>node6</title>
<polygon fill="lightgray" stroke="black" points="176,-273.6 122,-273.6 122,-252 176,-252 176,-273.6"/>
</g>
<!-- node4&#45;&gt;node6 -->
<!-- node7 -->
<g id="node7" class="node">
<title>node7</title>
<polygon fill="lightgray" stroke="black" points="254,-273.6 200,-273.6 200,-252 254,-252 254,-273.6"/>
</g>
<!-- node4&#45;&gt;node7 -->
<!-- node3 -->
<g id="node3" class="node">
<title>node3</title>
<polygon fill="lightgray" stroke="black" points="78,-216 24,-216 24,-194.4 78,-194.4 78,-216"/>
</g>
<!-- node2&#45;&gt;node3 -->
<g id="edge2" class="edge">
<title>node2:s&#45;&gt;node3:n</title>
<path fill="none" stroke="green" d="M71,-251C71,-237.56 59.75,-234.67 54.12,-226.51"/>
<polygon fill="green" stroke="green" points="57.64,-226.04 51.43,-217.45 50.93,-228.03 57.64,-226.04"/>
</g>
<!-- node5 -->
<g id="node5" class="node">
<title>node5</title>
<polygon fill="lightgray" stroke="black" points="98,-158.4 44,-158.4 44,-136.8 98,-136.8 98,-158.4"/>
</g>
<!-- node2&#45;&gt;node5 -->
<g id="edge4" class="edge">
<title>node2:s&#45;&gt;node5:n</title>
<path fill="none" stroke="red" d="M71,-251C71,-233.9 83.36,-232.71 87,-216 89.04,-206.62 88.99,-203.79 87,-194.4 84.33,-181.82 76.95,-177.75 73.22,-169.53"/>
<polygon fill="red" stroke="red" points="76.69,-169.01 71.3,-159.88 69.82,-170.38 76.69,-169.01"/>
</g>
<!-- node3&#45;&gt;node5 -->
<g id="edge3" class="edge">
<title>node3:s&#45;&gt;node5:n</title>
<path fill="none" stroke="blue" d="M51,-194.4C51,-180.67 62.25,-177.58 67.88,-169.17"/>
<polygon fill="blue" stroke="blue" points="71.15,-170.43 70.58,-159.85 64.43,-168.48 71.15,-170.43"/>
</g>
<!-- node5&#45;&gt;node8 -->
<g id="edge7" class="edge">
<title>node5:s&#45;&gt;node8:n</title>
<path fill="none" stroke="blue" d="M71,-135.8C71,-123.98 77.2,-119.57 80.69,-111.91"/>
<polygon fill="blue" stroke="blue" points="84.08,-112.79 82.69,-102.28 77.23,-111.36 84.08,-112.79"/>
</g>
<!-- node6&#45;&gt;node9 -->
<g id="edge9" class="edge">
<title>node6:s&#45;&gt;node9:n</title>
<path fill="none" stroke="blue" d="M149,-251C149,-162.52 149,-137.62 149,-54.48"/>
<polygon fill="blue" stroke="blue" points="152.5,-54.71 149,-44.71 145.5,-54.71 152.5,-54.71"/>
</g>
<!-- node7&#45;&gt;node9 -->
<g id="edge10" class="edge">
<title>node7:s&#45;&gt;node9:n</title>
<path fill="none" stroke="blue" d="M227,-251C227,-166.18 196.25,-149.23 163,-71.2 159.42,-62.8 154.51,-59.36 151.56,-54.05"/>
<polygon fill="blue" stroke="blue" points="155.05,-53.6 149.35,-44.67 148.23,-55.21 155.05,-53.6"/>
</g>
<!-- node0 -->
<g id="node0" class="node">
<title>node0</title>
<polygon fill="#48ab30" stroke="black" points="44,-379.64 71,-367.2 98,-379.64 97.97,-399.76 44.03,-399.76 44,-379.64"/>
</g>
<!-- node0&#45;&gt;node4 -->
<g id="edge8" class="edge">
<title>node0:s&#45;&gt;node4:n</title>
<path fill="none" stroke="blue" d="M71,-367.2C71,-356.26 71,-351.09 71,-343.58"/>
<polygon fill="blue" stroke="blue" points="74.5,-343.71 71,-333.71 67.5,-343.71 74.5,-343.71"/>
</g>
</g>
</svg>
