<?xml version="1.0" encoding="UTF-8" standalone="no"?>
<!DOCTYPE svg PUBLIC "-//W3C//DTD SVG 1.1//EN"
 "http://www.w3.org/Graphics/SVG/1.1/DTD/svg11.dtd">
<!-- Generated by graphviz version 12.1.2 (0)
 -->
<!-- Pages: 1 -->
<svg width="134pt" height="181pt"
 viewBox="0.00 0.00 134.00 180.80" xmlns="http://www.w3.org/2000/svg" xmlns:xlink="http://www.w3.org/1999/xlink">
 <rect width="100%" height="100%" fill="#f8f8f8"/>
<g id="graph0" class="graph" transform="scale(1 1) rotate(0) translate(4 176.8)">
<!-- node0 -->
<g id="node0" class="node">
<title>node0</title>
<polygon fill="#48ab30" stroke="black" points="0,-149.24 27,-136.8 54,-149.24 53.97,-169.36 0.03,-169.36 0,-149.24"/>
</g>
<!-- node2 -->
<g id="node2" class="node">
<title>node2</title>
<polygon fill="lightgray" stroke="black" points="54,-100.8 0,-100.8 0,-79.2 54,-79.2 54,-100.8"/>
</g>
<!-- node0&#45;&gt;node2 -->
<g id="edge3" class="edge">
<title>node0:s&#45;&gt;node2:n</title>
<path fill="none" stroke="blue" d="M27,-136.8C27,-125.43 27,-120.12 27,-112.25"/>
<polygon fill="blue" stroke="blue" points="30.5,-112.31 27,-102.31 23.5,-112.31 30.5,-112.31"/>
</g>
<!-- node1 -->
<g id="node1" class="node">
<title>node1</title>
<polygon fill="lightgray" stroke="black" points="54,-32.4 0,-32.4 0,-10.8 54,-10.8 54,-32.4"/>
</g>
<!-- node2&#45;&gt;node1 -->
<g id="edge1" class="edge">
<title>node2:s&#45;&gt;node1:n</title>
<path fill="none" stroke="green" d="M27,-79.2C27,-63.3 27,-56.71 27,-44.89"/>
<polygon fill="green" stroke="green" points="30.5,-44.91 27,-34.91 23.5,-44.91 30.5,-44.91"/>
</g>
<!-- node2&#45;&gt;node1 -->
<g id="edge2" class="edge">
<title>node2:n&#45;&gt;node1:s</title>
<path fill="none" stroke="blue" stroke-width="2" d="M37.64,-109.01C43.29,-108.27 49.9,-105.06 54,-100.8 60.94,-93.6 60.94,-18 54,-10.8 45.67,-2.15 27,2.21 27,-9.8"/>
<polygon fill="blue" stroke="blue" stroke-width="2" points="39.75,-106.21 29.51,-103.5 35.82,-112.01 39.75,-106.21"/>
</g>
<!-- node4 -->
<g id="node4" class="node">
<title>node4</title>
<polygon fill="#ab3030" stroke="black" points="126,-28.27 99,-43.2 72,-28.27 72.03,-4.13 125.97,-4.13 126,-28.27"/>
</g>
<!-- node2&#45;&gt;node4 -->
<g id="edge4" class="edge">
<title>node2:s&#45;&gt;node4:n</title>
<path fill="none" stroke="red" d="M27,-79.2C27,-48.17 81.15,-70.79 95.53,-54.01"/>
<polygon fill="red" stroke="red" points="98.81,-55.23 98.54,-44.64 92.15,-53.09 98.81,-55.23"/>
</g>
</g>
</svg>
