<?xml version="1.0" encoding="UTF-8" standalone="no"?>
<!DOCTYPE svg PUBLIC "-//W3C//DTD SVG 1.1//EN"
 "http://www.w3.org/Graphics/SVG/1.1/DTD/svg11.dtd">
<!-- Generated by graphviz version 12.1.2 (0)
 -->
<!-- Pages: 1 -->
<svg width="278pt" height="210pt"
 viewBox="0.00 0.00 278.00 209.60" xmlns="http://www.w3.org/2000/svg" xmlns:xlink="http://www.w3.org/1999/xlink">
 <rect width="100%" height="100%" fill="#f8f8f8"/>
<g id="graph0" class="graph" transform="scale(1 1) rotate(0) translate(4 205.6)">
<!-- node9 -->
<g id="node9" class="node">
<title>node9</title>
<polygon fill="#48ab30" stroke="black" points="108,-173.33 135,-158.4 162,-173.33 161.97,-197.47 108.03,-197.47 108,-173.33"/>
</g>
<!-- node2 -->
<g id="node2" class="node">
<title>node2</title>
<polygon fill="lightgray" stroke="black" points="54,-122.4 0,-122.4 0,-79.2 54,-79.2 54,-122.4"/>
</g>
<!-- node9&#45;&gt;node2 -->
<g id="edge1" class="edge">
<title>node9:s&#45;&gt;node2:n</title>
<path fill="none" stroke="blue" d="M135,-158.4C135,-112.35 45.53,-162.22 29.46,-133.4"/>
<polygon fill="blue" stroke="blue" points="32.93,-132.87 27.33,-123.88 26.1,-134.4 32.93,-132.87"/>
</g>
<!-- node4 -->
<g id="node4" class="node">
<title>node4</title>
<polygon fill="lightgray" stroke="black" points="126,-122.4 72,-122.4 72,-79.2 126,-79.2 126,-122.4"/>
</g>
<!-- node9&#45;&gt;node4 -->
<g id="edge2" class="edge">
<title>node9:s&#45;&gt;node4:n</title>
<path fill="none" stroke="blue" d="M135,-158.4C135,-140.55 112.59,-142.54 103.13,-133.06"/>
<polygon fill="blue" stroke="blue" points="106.42,-131.87 99.55,-123.81 99.89,-134.4 106.42,-131.87"/>
</g>
<!-- node6 -->
<g id="node6" class="node">
<title>node6</title>
<polygon fill="lightgray" stroke="black" points="198,-122.4 144,-122.4 144,-79.2 198,-79.2 198,-122.4"/>
</g>
<!-- node9&#45;&gt;node6 -->
<g id="edge3" class="edge">
<title>node9:s&#45;&gt;node6:n</title>
<path fill="none" stroke="blue" d="M135,-158.4C135,-140.55 157.41,-142.54 166.87,-133.06"/>
<polygon fill="blue" stroke="blue" points="170.11,-134.4 170.45,-123.81 163.58,-131.87 170.11,-134.4"/>
</g>
<!-- node8 -->
<g id="node8" class="node">
<title>node8</title>
<polygon fill="lightgray" stroke="black" points="270,-122.4 216,-122.4 216,-79.2 270,-79.2 270,-122.4"/>
</g>
<!-- node9&#45;&gt;node8 -->
<g id="edge4" class="edge">
<title>node9:s&#45;&gt;node8:n</title>
<path fill="none" stroke="blue" d="M135,-158.4C135,-112.35 224.47,-162.22 240.54,-133.4"/>
<polygon fill="blue" stroke="blue" points="243.9,-134.4 242.67,-123.88 237.07,-132.87 243.9,-134.4"/>
</g>
<!-- node11 -->
<g id="node11" class="node">
<title>node11</title>
<polygon fill="#ab3030" stroke="black" points="162,-28.27 135,-43.2 108,-28.27 108.03,-4.13 161.97,-4.13 162,-28.27"/>
</g>
<!-- node2&#45;&gt;node11 -->
<g id="edge5" class="edge">
<title>node2:s&#45;&gt;node11:n</title>
<path fill="none" stroke="blue" d="M27,-79.2C27,-33.15 116.47,-83.02 132.54,-54.2"/>
<polygon fill="blue" stroke="blue" points="135.9,-55.2 134.67,-44.68 129.07,-53.67 135.9,-55.2"/>
</g>
<!-- node4&#45;&gt;node11 -->
<g id="edge6" class="edge">
<title>node4:s&#45;&gt;node11:n</title>
<path fill="none" stroke="blue" d="M99,-79.2C99,-61.35 121.41,-63.34 130.87,-53.86"/>
<polygon fill="blue" stroke="blue" points="134.11,-55.2 134.45,-44.61 127.58,-52.67 134.11,-55.2"/>
</g>
<!-- node6&#45;&gt;node11 -->
<g id="edge7" class="edge">
<title>node6:s&#45;&gt;node11:n</title>
<path fill="none" stroke="blue" d="M171,-79.2C171,-61.35 148.59,-63.34 139.13,-53.86"/>
<polygon fill="blue" stroke="blue" points="142.42,-52.67 135.55,-44.61 135.89,-55.2 142.42,-52.67"/>
</g>
<!-- node8&#45;&gt;node11 -->
<g id="edge8" class="edge">
<title>node8:s&#45;&gt;node11:n</title>
<path fill="none" stroke="blue" d="M243,-79.2C243,-33.15 153.53,-83.02 137.46,-54.2"/>
<polygon fill="blue" stroke="blue" points="140.93,-53.67 135.33,-44.68 134.1,-55.2 140.93,-53.67"/>
</g>
</g>
</svg>
