<?xml version="1.0" encoding="UTF-8" standalone="no"?>
<!DOCTYPE svg PUBLIC "-//W3C//DTD SVG 1.1//EN"
 "http://www.w3.org/Graphics/SVG/1.1/DTD/svg11.dtd">
<!-- Generated by graphviz version 12.1.2 (0)
 -->
<!-- Pages: 1 -->
<svg width="252pt" height="296pt"
 viewBox="0.00 0.00 252.00 296.00" xmlns="http://www.w3.org/2000/svg" xmlns:xlink="http://www.w3.org/1999/xlink">
 <rect width="100%" height="100%" fill="#f8f8f8"/>
<g id="graph0" class="graph" transform="scale(1 1) rotate(0) translate(4 292)">
<g id="clust1" class="cluster">
<title>cluster_0</title>
<polygon fill="#ddddff" stroke="white" stroke-width="0" points="8,-63.2 8,-232 236,-232 236,-63.2 8,-63.2"/>
</g>
<g id="clust2" class="cluster">
<title>cluster_1</title>
<polygon fill="#ddffdd" stroke="white" stroke-width="0" points="134,-186.4 134,-224 204,-224 204,-186.4 134,-186.4"/>
</g>
<g id="clust3" class="cluster">
<title>cluster_2</title>
<polygon fill="#ffdddd" stroke="white" stroke-width="0" points="80,-128.8 80,-166.4 150,-166.4 150,-128.8 80,-128.8"/>
</g>
<g id="clust4" class="cluster">
<title>cluster_3</title>
<polygon fill="#ffdddd" stroke="white" stroke-width="0" points="158,-128.8 158,-166.4 228,-166.4 228,-128.8 158,-128.8"/>
</g>
<g id="clust5" class="cluster">
<title>cluster_4</title>
<polygon fill="#ffffdd" stroke="white" stroke-width="0" points="80,-71.2 80,-108.8 150,-108.8 150,-71.2 80,-71.2"/>
</g>
<!-- node5 -->
<g id="node5" class="node">
<title>node5</title>
<polygon fill="lightgray" stroke="black" points="70,-158.4 16,-158.4 16,-136.8 70,-136.8 70,-158.4"/>
</g>
<!-- node6 -->
<g id="node6" class="node">
<title>node6</title>
<polygon fill="lightgray" stroke="black" points="142,-100.8 88,-100.8 88,-79.2 142,-79.2 142,-100.8"/>
</g>
<!-- node5&#45;&gt;node6 -->
<g id="edge4" class="edge">
<title>node5:s&#45;&gt;node6:n</title>
<path fill="none" stroke="blue" d="M43,-135.8C43,-105.11 97.15,-128.69 111.53,-112.42"/>
<polygon fill="blue" stroke="blue" points="114.75,-113.83 114.53,-103.24 108.09,-111.66 114.75,-113.83"/>
</g>
<!-- node2 -->
<g id="node2" class="node">
<title>node2</title>
<polygon fill="lightgray" stroke="black" points="196,-216 142,-216 142,-194.4 196,-194.4 196,-216"/>
</g>
<!-- node2&#45;&gt;node5 -->
<g id="edge3" class="edge">
<title>node2:s&#45;&gt;node5:n</title>
<path fill="none" stroke="blue" d="M169,-193.4C169,-139.93 61.92,-205.44 45.19,-170.56"/>
<polygon fill="blue" stroke="blue" points="48.65,-170.03 43.29,-160.89 41.78,-171.37 48.65,-170.03"/>
</g>
<!-- node3 -->
<g id="node3" class="node">
<title>node3</title>
<polygon fill="lightgray" stroke="black" points="142,-158.4 88,-158.4 88,-136.8 142,-136.8 142,-158.4"/>
</g>
<!-- node2&#45;&gt;node3 -->
<!-- node4 -->
<g id="node4" class="node">
<title>node4</title>
<polygon fill="lightgray" stroke="black" points="220,-158.4 166,-158.4 166,-136.8 220,-136.8 220,-158.4"/>
</g>
<!-- node2&#45;&gt;node4 -->
<!-- node3&#45;&gt;node6 -->
<g id="edge5" class="edge">
<title>node3:s&#45;&gt;node6:n</title>
<path fill="none" stroke="blue" d="M115,-135.8C115,-125.17 115,-120.15 115,-112.85"/>
<polygon fill="blue" stroke="blue" points="118.5,-113.31 115,-103.31 111.5,-113.31 118.5,-113.31"/>
</g>
<!-- node4&#45;&gt;node6 -->
<g id="edge6" class="edge">
<title>node4:s&#45;&gt;node6:n</title>
<path fill="none" stroke="blue" d="M193,-135.8C193,-102.71 133.28,-130.45 118.35,-112.57"/>
<polygon fill="blue" stroke="blue" points="121.76,-111.75 115.45,-103.25 115.08,-113.83 121.76,-111.75"/>
</g>
<!-- node7 -->
<g id="node7" class="node">
<title>node7</title>
<polygon fill="#ab3030" stroke="black" points="142,-28.27 115,-43.2 88,-28.27 88.03,-4.13 141.97,-4.13 142,-28.27"/>
</g>
<!-- node6&#45;&gt;node7 -->
<g id="edge8" class="edge">
<title>node6:s&#45;&gt;node7:n</title>
<path fill="none" stroke="blue" d="M115,-78.2C115,-67.26 115,-62.09 115,-54.58"/>
<polygon fill="blue" stroke="blue" points="118.5,-54.71 115,-44.71 111.5,-54.71 118.5,-54.71"/>
</g>
<!-- node0 -->
<g id="node0" class="node">
<title>node0</title>
<polygon fill="#48ab30" stroke="black" points="142,-264.44 169,-252 196,-264.44 195.97,-284.56 142.03,-284.56 142,-264.44"/>
</g>
<!-- node0&#45;&gt;node2 -->
<g id="edge7" class="edge">
<title>node0:s&#45;&gt;node2:n</title>
<path fill="none" stroke="blue" d="M169,-252C169,-241.06 169,-235.89 169,-228.38"/>
<polygon fill="blue" stroke="blue" points="172.5,-228.51 169,-218.51 165.5,-228.51 172.5,-228.51"/>
</g>
</g>
</svg>
