<?xml version="1.0" encoding="UTF-8" standalone="no"?>
<!DOCTYPE svg PUBLIC "-//W3C//DTD SVG 1.1//EN"
 "http://www.w3.org/Graphics/SVG/1.1/DTD/svg11.dtd">
<!-- Generated by graphviz version 12.1.2 (0)
 -->
<!-- Pages: 1 -->
<svg width="62pt" height="174pt"
 viewBox="0.00 0.00 62.00 173.60" xmlns="http://www.w3.org/2000/svg" xmlns:xlink="http://www.w3.org/1999/xlink">
 <rect width="100%" height="100%" fill="#f8f8f8"/>
<g id="graph0" class="graph" transform="scale(1 1) rotate(0) translate(4 169.6)">
<!-- node0 -->
<g id="node0" class="node">
<title>node0</title>
<polygon fill="#48ab30" stroke="black" points="0,-142.04 27,-129.6 54,-142.04 53.97,-162.16 0.03,-162.16 0,-142.04"/>
</g>
<!-- node1 -->
<g id="node1" class="node">
<title>node1</title>
<polygon fill="lightgray" stroke="black" points="54,-93.6 0,-93.6 0,-72 54,-72 54,-93.6"/>
</g>
<!-- node0&#45;&gt;node1 -->
<g id="edge1" class="edge">
<title>node0:s&#45;&gt;node1:n</title>
<path fill="none" stroke="blue" d="M27,-129.6C27,-118.23 27,-112.92 27,-105.05"/>
<polygon fill="blue" stroke="blue" points="30.5,-105.11 27,-95.11 23.5,-105.11 30.5,-105.11"/>
</g>
<!-- node2 -->
<g id="node2" class="node">
<title>node2</title>
<polygon fill="#ab3030" stroke="black" points="54,-23.56 27,-36 0,-23.56 0.03,-3.44 53.97,-3.44 54,-23.56"/>
</g>
<!-- node1&#45;&gt;node2 -->
<g id="edge2" class="edge">
<title>node1:s&#45;&gt;node2:n</title>
<path fill="none" stroke="blue" d="M27,-72C27,-60.63 27,-55.32 27,-47.45"/>
<polygon fill="blue" stroke="blue" points="30.5,-47.51 27,-37.51 23.5,-47.51 30.5,-47.51"/>
</g>
</g>
</svg>
