<?xml version="1.0" encoding="UTF-8" standalone="no"?>
<!DOCTYPE svg PUBLIC "-//W3C//DTD SVG 1.1//EN"
 "http://www.w3.org/Graphics/SVG/1.1/DTD/svg11.dtd">
<!-- Generated by graphviz version 12.1.2 (0)
 -->
<!-- Pages: 1 -->
<svg width="276pt" height="445pt"
 viewBox="0.00 0.00 276.00 445.20" xmlns="http://www.w3.org/2000/svg" xmlns:xlink="http://www.w3.org/1999/xlink">
 <rect width="100%" height="100%" fill="#f8f8f8"/>
<g id="graph0" class="graph" transform="scale(1 1) rotate(0) translate(4 441.2)">
<g id="clust1" class="cluster">
<title>cluster_0</title>
<polygon fill="#ddddff" stroke="white" stroke-width="0" points="8,-8 8,-381.2 206,-381.2 206,-8 8,-8"/>
</g>
<g id="clust2" class="cluster">
<title>cluster_1</title>
<polygon fill="#ddffdd" stroke="white" stroke-width="0" points="106,-335.6 106,-373.2 176,-373.2 176,-335.6 106,-335.6"/>
</g>
<g id="clust3" class="cluster">
<title>cluster_2</title>
<polygon fill="#ffdddd" stroke="white" stroke-width="0" points="48,-278 48,-315.6 118,-315.6 118,-278 48,-278"/>
</g>
<g id="clust4" class="cluster">
<title>cluster_3</title>
<polygon fill="#ffffdd" stroke="white" stroke-width="0" points="16,-83.6 16,-258 198,-258 198,-83.6 16,-83.6"/>
</g>
<!-- node8 -->
<g id="node8" class="node">
<title>node8</title>
<polygon fill="#ab3030" stroke="black" points="98,-39.56 71,-52 44,-39.56 44.03,-19.44 97.97,-19.44 98,-39.56"/>
</g>
<!-- node2 -->
<g id="node2" class="node">
<title>node2</title>
<polygon fill="lightgray" stroke="black" points="168,-365.2 114,-365.2 114,-343.6 168,-343.6 168,-365.2"/>
</g>
<!-- node3 -->
<g id="node3" class="node">
<title>node3</title>
<polygon fill="lightgray" stroke="black" points="110,-307.6 56,-307.6 56,-286 110,-286 110,-307.6"/>
</g>
<!-- node2&#45;&gt;node3 -->
<!-- node9 -->
<g id="node9" class="node">
<title>node9</title>
<polygon fill="lightgray" stroke="black" points="180,-250 126,-250 126,-206.8 180,-206.8 180,-250"/>
</g>
<!-- node2&#45;&gt;node9 -->
<g id="edge10" class="edge">
<title>node2:s&#45;&gt;node9:n</title>
<path fill="none" stroke="blue" d="M141,-342.6C141,-305.55 150.77,-294.21 152.68,-262.18"/>
<polygon fill="blue" stroke="blue" points="156.17,-262.61 152.96,-252.51 149.17,-262.41 156.17,-262.61"/>
</g>
<!-- node4 -->
<g id="node4" class="node">
<title>node4</title>
<polygon fill="lightgray" stroke="black" points="108,-250 54,-250 54,-206.8 108,-206.8 108,-250"/>
</g>
<!-- node3&#45;&gt;node4 -->
<g id="edge11" class="edge">
<title>node3:s&#45;&gt;node4:n</title>
<path fill="none" stroke="blue" d="M83,-285C83,-274.36 82.01,-269.36 81.42,-262.06"/>
<polygon fill="blue" stroke="blue" points="84.94,-262.37 81.06,-252.51 77.94,-262.64 84.94,-262.37"/>
</g>
<!-- node10 -->
<g id="node10" class="node">
<title>node10</title>
<polygon fill="lightgray" stroke="black" points="170,-170.8 116,-170.8 116,-149.2 170,-149.2 170,-170.8"/>
</g>
<!-- node9&#45;&gt;node10 -->
<g id="edge4" class="edge">
<title>node9:s&#45;&gt;node10:n</title>
<path fill="none" stroke="green" d="M153,-206.8C153,-194.86 147.83,-190.07 144.93,-182.15"/>
<polygon fill="green" stroke="green" points="148.38,-181.56 143.25,-172.29 141.48,-182.74 148.38,-181.56"/>
</g>
<!-- node12 -->
<g id="node12" class="node">
<title>node12</title>
<polygon fill="lightgray" stroke="black" points="190,-113.2 136,-113.2 136,-91.6 190,-91.6 190,-113.2"/>
</g>
<!-- node9&#45;&gt;node12 -->
<g id="edge6" class="edge">
<title>node9:s&#45;&gt;node12:n</title>
<path fill="none" stroke="red" d="M153,-206.8C153,-187.06 172.93,-189.58 179,-170.8 181.95,-161.67 180.99,-158.59 179,-149.2 176.33,-136.62 168.95,-132.55 165.22,-124.33"/>
<polygon fill="red" stroke="red" points="168.69,-123.81 163.3,-114.68 161.82,-125.18 168.69,-123.81"/>
</g>
<!-- node5 -->
<g id="node5" class="node">
<title>node5</title>
<polygon fill="lightgray" stroke="black" points="78,-170.8 24,-170.8 24,-149.2 78,-149.2 78,-170.8"/>
</g>
<!-- node4&#45;&gt;node5 -->
<g id="edge1" class="edge">
<title>node4:s&#45;&gt;node5:n</title>
<path fill="none" stroke="green" d="M81,-206.8C81,-190.69 63.05,-190.42 54.92,-181.49"/>
<polygon fill="green" stroke="green" points="58.25,-180.4 51.52,-172.22 51.68,-182.81 58.25,-180.4"/>
</g>
<!-- node7 -->
<g id="node7" class="node">
<title>node7</title>
<polygon fill="lightgray" stroke="black" points="98,-113.2 44,-113.2 44,-91.6 98,-91.6 98,-113.2"/>
</g>
<!-- node4&#45;&gt;node7 -->
<g id="edge3" class="edge">
<title>node4:s&#45;&gt;node7:n</title>
<path fill="none" stroke="red" d="M81,-206.8C81,-181.06 92.34,-174.38 87,-149.2 84.33,-136.62 76.95,-132.55 73.22,-124.33"/>
<polygon fill="red" stroke="red" points="76.69,-123.81 71.3,-114.68 69.82,-125.18 76.69,-123.81"/>
</g>
<!-- node10&#45;&gt;node12 -->
<g id="edge5" class="edge">
<title>node10:s&#45;&gt;node12:n</title>
<path fill="none" stroke="blue" d="M143,-149.2C143,-135.47 154.25,-132.38 159.88,-123.97"/>
<polygon fill="blue" stroke="blue" points="163.15,-125.23 162.58,-114.65 156.43,-123.28 163.15,-125.23"/>
</g>
<!-- node13 -->
<g id="node13" class="node">
<title>node13</title>
<polygon fill="#ab3030" stroke="black" points="268,-40.67 241,-55.6 214,-40.67 214.03,-16.53 267.97,-16.53 268,-40.67"/>
</g>
<!-- node12&#45;&gt;node13 -->
<g id="edge12" class="edge">
<title>node12:s&#45;&gt;node13:n</title>
<path fill="none" stroke="blue" d="M163,-90.6C163,-57.35 222.72,-84.58 237.65,-66.45"/>
<polygon fill="blue" stroke="blue" points="240.95,-67.63 240.55,-57.05 234.26,-65.57 240.95,-67.63"/>
</g>
<!-- node5&#45;&gt;node7 -->
<g id="edge2" class="edge">
<title>node5:s&#45;&gt;node7:n</title>
<path fill="none" stroke="blue" d="M51,-149.2C51,-135.47 62.25,-132.38 67.88,-123.97"/>
<polygon fill="blue" stroke="blue" points="71.15,-125.23 70.58,-114.65 64.43,-123.28 71.15,-125.23"/>
</g>
<!-- node7&#45;&gt;node8 -->
<g id="edge8" class="edge">
<title>node7:s&#45;&gt;node8:n</title>
<path fill="none" stroke="blue" d="M71,-90.6C71,-78.56 71,-73.08 71,-64.63"/>
<polygon fill="blue" stroke="blue" points="74.5,-64.83 71,-54.83 67.5,-64.83 74.5,-64.83"/>
</g>
<!-- node0 -->
<g id="node0" class="node">
<title>node0</title>
<polygon fill="#48ab30" stroke="black" points="114,-413.64 141,-401.2 168,-413.64 167.97,-433.76 114.03,-433.76 114,-413.64"/>
</g>
<!-- node0&#45;&gt;node2 -->
<g id="edge9" class="edge">
<title>node0:s&#45;&gt;node2:n</title>
<path fill="none" stroke="blue" d="M141,-401.2C141,-390.26 141,-385.09 141,-377.58"/>
<polygon fill="blue" stroke="blue" points="144.5,-377.71 141,-367.71 137.5,-377.71 144.5,-377.71"/>
</g>
</g>
</svg>
