<?xml version="1.0" encoding="UTF-8" standalone="no"?>
<!DOCTYPE svg PUBLIC "-//W3C//DTD SVG 1.1//EN"
 "http://www.w3.org/Graphics/SVG/1.1/DTD/svg11.dtd">
<!-- Generated by graphviz version 12.1.2 (0)
 -->
<!-- Pages: 1 -->
<svg width="130pt" height="375pt"
 viewBox="0.00 0.00 130.00 375.20" xmlns="http://www.w3.org/2000/svg" xmlns:xlink="http://www.w3.org/1999/xlink">
 <rect width="100%" height="100%" fill="#f8f8f8"/>
<g id="graph0" class="graph" transform="scale(1 1) rotate(0) translate(4 371.2)">
<g id="clust1" class="cluster">
<title>cluster_0</title>
<polygon fill="#ffddff" stroke="white" stroke-width="0" points="8,-56 8,-296 114,-296 114,-56 8,-56"/>
</g>
<g id="clust2" class="cluster">
<title>cluster_1</title>
<polygon fill="#ffddff" stroke="white" stroke-width="6" points="16,-64 16,-238.4 106,-238.4 106,-64 16,-64"/>
</g>
<!-- node2 -->
<g id="node2" class="node">
<title>node2</title>
<polygon fill="lightgray" stroke="black" points="88,-288 34,-288 34,-266.4 88,-266.4 88,-288"/>
</g>
<!-- node3 -->
<g id="node3" class="node">
<title>node3</title>
<polygon fill="lightgray" stroke="black" points="88,-230.4 34,-230.4 34,-187.2 88,-187.2 88,-230.4"/>
</g>
<!-- node2&#45;&gt;node3 -->
<g id="edge6" class="edge">
<title>node2:s&#45;&gt;node3:n</title>
<path fill="none" stroke="blue" d="M61,-266.4C61,-255.46 61,-250.29 61,-242.78"/>
<polygon fill="blue" stroke="blue" points="64.5,-242.91 61,-232.91 57.5,-242.91 64.5,-242.91"/>
</g>
<!-- node4 -->
<g id="node4" class="node">
<title>node4</title>
<polygon fill="lightgray" stroke="black" points="78,-151.2 24,-151.2 24,-129.6 78,-129.6 78,-151.2"/>
</g>
<!-- node3&#45;&gt;node4 -->
<g id="edge1" class="edge">
<title>node3:s&#45;&gt;node4:n</title>
<path fill="none" stroke="green" d="M61,-187.2C61,-175.26 55.83,-170.47 52.93,-162.55"/>
<polygon fill="green" stroke="green" points="56.38,-161.96 51.25,-152.69 49.48,-163.14 56.38,-161.96"/>
</g>
<!-- node6 -->
<g id="node6" class="node">
<title>node6</title>
<polygon fill="lightgray" stroke="black" points="88,-93.6 34,-93.6 34,-72 88,-72 88,-93.6"/>
</g>
<!-- node3&#45;&gt;node6 -->
<g id="edge3" class="edge">
<title>node3:s&#45;&gt;node6:n</title>
<path fill="none" stroke="red" d="M61,-187.2C61,-167.46 80.93,-169.98 87,-151.2 89.95,-142.07 89.95,-138.73 87,-129.6 82.4,-115.37 69.84,-113.37 64.03,-104.64"/>
<polygon fill="red" stroke="red" points="67.42,-103.78 61.4,-95.06 60.67,-105.63 67.42,-103.78"/>
</g>
<!-- node4&#45;&gt;node6 -->
<g id="edge2" class="edge">
<title>node4:s&#45;&gt;node6:n</title>
<path fill="none" stroke="blue" d="M51,-129.6C51,-117.66 56.17,-112.87 59.07,-104.95"/>
<polygon fill="blue" stroke="blue" points="62.52,-105.54 60.75,-95.09 55.62,-104.36 62.52,-105.54"/>
</g>
<!-- node7 -->
<g id="node7" class="node">
<title>node7</title>
<polygon fill="#ab3030" stroke="black" points="88,-23.56 61,-36 34,-23.56 34.03,-3.44 87.97,-3.44 88,-23.56"/>
</g>
<!-- node6&#45;&gt;node7 -->
<g id="edge5" class="edge">
<title>node6:s&#45;&gt;node7:n</title>
<path fill="none" stroke="blue" d="M61,-71C61,-60.06 61,-54.89 61,-47.38"/>
<polygon fill="blue" stroke="blue" points="64.5,-47.51 61,-37.51 57.5,-47.51 64.5,-47.51"/>
</g>
<!-- node1 -->
<g id="node1" class="node">
<title>node1</title>
<polygon fill="#48ab30" stroke="black" points="34,-338.93 61,-324 88,-338.93 87.97,-363.07 34.03,-363.07 34,-338.93"/>
</g>
<!-- node1&#45;&gt;node2 -->
<g id="edge4" class="edge">
<title>node1:s&#45;&gt;node2:n</title>
<path fill="none" stroke="blue" d="M61,-324C61,-313.06 61,-307.89 61,-300.38"/>
<polygon fill="blue" stroke="blue" points="64.5,-300.51 61,-290.51 57.5,-300.51 64.5,-300.51"/>
</g>
</g>
</svg>
