<?xml version="1.0" encoding="UTF-8" standalone="no"?>
<!DOCTYPE svg PUBLIC "-//W3C//DTD SVG 1.1//EN"
 "http://www.w3.org/Graphics/SVG/1.1/DTD/svg11.dtd">
<!-- Generated by graphviz version 12.1.2 (0)
 -->
<!-- Pages: 1 -->
<svg width="236pt" height="308pt"
 viewBox="0.00 0.00 236.00 308.40" xmlns="http://www.w3.org/2000/svg" xmlns:xlink="http://www.w3.org/1999/xlink">
 <rect width="100%" height="100%" fill="#f8f8f8"/>
<g id="graph0" class="graph" transform="scale(1 1) rotate(0) translate(4 304.4)">
<g id="clust1" class="cluster">
<title>cluster_0</title>
<polygon fill="#ddddff" stroke="white" stroke-width="0" points="8,-8 8,-244.4 166,-244.4 166,-8 8,-8"/>
</g>
<g id="clust2" class="cluster">
<title>cluster_1</title>
<polygon fill="#ddffdd" stroke="white" stroke-width="0" points="76,-198.8 76,-236.4 146,-236.4 146,-198.8 76,-198.8"/>
</g>
<g id="clust3" class="cluster">
<title>cluster_2</title>
<polygon fill="#ffdddd" stroke="white" stroke-width="0" points="18,-141.2 18,-178.8 88,-178.8 88,-141.2 18,-141.2"/>
</g>
<g id="clust4" class="cluster">
<title>cluster_3</title>
<polygon fill="#ffffdd" stroke="white" stroke-width="0" points="16,-83.6 16,-121.2 158,-121.2 158,-83.6 16,-83.6"/>
</g>
<!-- node5 -->
<g id="node5" class="node">
<title>node5</title>
<polygon fill="#ab3030" stroke="black" points="78,-39.56 51,-52 24,-39.56 24.03,-19.44 77.97,-19.44 78,-39.56"/>
</g>
<!-- node2 -->
<g id="node2" class="node">
<title>node2</title>
<polygon fill="lightgray" stroke="black" points="138,-228.4 84,-228.4 84,-206.8 138,-206.8 138,-228.4"/>
</g>
<!-- node3 -->
<g id="node3" class="node">
<title>node3</title>
<polygon fill="lightgray" stroke="black" points="80,-170.8 26,-170.8 26,-149.2 80,-149.2 80,-170.8"/>
</g>
<!-- node2&#45;&gt;node3 -->
<!-- node6 -->
<g id="node6" class="node">
<title>node6</title>
<polygon fill="lightgray" stroke="black" points="150,-113.2 96,-113.2 96,-91.6 150,-91.6 150,-113.2"/>
</g>
<!-- node2&#45;&gt;node6 -->
<g id="edge4" class="edge">
<title>node2:s&#45;&gt;node6:n</title>
<path fill="none" stroke="blue" d="M111,-205.8C111,-168.75 120.77,-157.41 122.68,-125.38"/>
<polygon fill="blue" stroke="blue" points="126.17,-125.81 122.96,-115.71 119.17,-125.61 126.17,-125.81"/>
</g>
<!-- node4 -->
<g id="node4" class="node">
<title>node4</title>
<polygon fill="lightgray" stroke="black" points="78,-113.2 24,-113.2 24,-91.6 78,-91.6 78,-113.2"/>
</g>
<!-- node3&#45;&gt;node4 -->
<g id="edge2" class="edge">
<title>node3:s&#45;&gt;node4:n</title>
<path fill="none" stroke="blue" d="M53,-148.2C53,-137.56 52.01,-132.56 51.42,-125.26"/>
<polygon fill="blue" stroke="blue" points="54.94,-125.57 51.06,-115.71 47.94,-125.84 54.94,-125.57"/>
</g>
<!-- node7 -->
<g id="node7" class="node">
<title>node7</title>
<polygon fill="#ab3030" stroke="black" points="228,-40.67 201,-55.6 174,-40.67 174.03,-16.53 227.97,-16.53 228,-40.67"/>
</g>
<!-- node6&#45;&gt;node7 -->
<g id="edge6" class="edge">
<title>node6:s&#45;&gt;node7:n</title>
<path fill="none" stroke="blue" d="M123,-90.6C123,-57.35 182.72,-84.58 197.65,-66.45"/>
<polygon fill="blue" stroke="blue" points="200.95,-67.63 200.55,-57.05 194.26,-65.57 200.95,-67.63"/>
</g>
<!-- node4&#45;&gt;node5 -->
<g id="edge3" class="edge">
<title>node4:s&#45;&gt;node5:n</title>
<path fill="none" stroke="blue" d="M51,-90.6C51,-78.56 51,-73.08 51,-64.63"/>
<polygon fill="blue" stroke="blue" points="54.5,-64.83 51,-54.83 47.5,-64.83 54.5,-64.83"/>
</g>
<!-- node0 -->
<g id="node0" class="node">
<title>node0</title>
<polygon fill="#48ab30" stroke="black" points="84,-276.84 111,-264.4 138,-276.84 137.97,-296.96 84.03,-296.96 84,-276.84"/>
</g>
<!-- node0&#45;&gt;node2 -->
<g id="edge5" class="edge">
<title>node0:s&#45;&gt;node2:n</title>
<path fill="none" stroke="blue" d="M111,-264.4C111,-253.46 111,-248.29 111,-240.78"/>
<polygon fill="blue" stroke="blue" points="114.5,-240.91 111,-230.91 107.5,-240.91 114.5,-240.91"/>
</g>
</g>
</svg>
